<svg width="1440" height="1024" viewBox="0 0 1440 1024" fill="none" xmlns="http://www.w3.org/2000/svg">
<path d="M0 192.352L144 97L288 192.352L432 97L576 192.352L720 97L864 192.352L1008 97L1152 192.352L1296 97L1440 192.352V674.958L1296 778L1152 674.958L1008 778L864 674.958L720 778L576 674.958L432 778L288 674.958L144 778L0 674.958V192.352Z" fill="#AB6B2E"/>
<path d="M284.851 354.879L288 356.82L291.149 354.879L432 268.048L572.851 354.879L576 356.82L579.149 354.879L720 268.049L860.851 354.879L864 356.82L867.149 354.879L1008 268.049L1148.85 354.879L1152 356.82L1155.15 354.879L1296 268.048L1434 353.121V795.857L1296 887.791L1155.33 794.076L1152 791.86L1148.67 794.076L1008 887.791L867.327 794.076L864 791.86L860.673 794.076L720 887.791L579.327 794.076L576 791.86L572.673 794.076L432 887.791L291.327 794.076L288 791.86L284.673 794.076L144 887.791L6 795.857V353.121L144 268.048L284.851 354.879Z" stroke="#AB6B2E" stroke-width="12"/>
<path d="M284.848 456.017L288 457.963L291.152 456.017L432 369.052L572.848 456.017L576 457.963L579.152 456.017L720 369.052L860.848 456.017L864 457.963L867.152 456.017L1008 369.052L1148.85 456.017L1152 457.963L1155.15 456.017L1296 369.052L1434 454.258V897.709L1296 989.787L1155.33 895.927L1152 893.705L1148.67 895.927L1008 989.787L867.33 895.927L864 893.705L860.67 895.927L720 989.787L579.33 895.927L576 893.705L572.67 895.927L432 989.787L291.33 895.927L288 893.705L284.67 895.927L144 989.787L6 897.709V454.258L144 369.052L284.848 456.017Z" stroke="#AB6B2E" stroke-width="12"/>
</svg>
