<svg width="61" height="37" viewBox="0 0 61 37" fill="none" xmlns="http://www.w3.org/2000/svg">
<rect width="61" height="37" fill="#1E1E1E"/>
<g clip-path="url(#clip0_13_448)">
<rect width="1440" height="5862" transform="translate(-135 -43)" fill="white"/>
<g clip-path="url(#clip1_13_448)">
<rect width="1440" height="1024" transform="translate(-135 -43)" fill="url(#paint0_linear_13_448)"/>
<path d="M43.8366 20.3173C48.2336 21.4959 51.4064 23.0969 53.0107 24.85C53.8184 25.7327 54.1813 26.6011 54.1824 27.4275C54.1834 28.2538 53.8227 29.1221 53.0175 30.0047C51.3873 31.7916 48.1276 33.4212 43.6018 34.6072C39.0967 35.7877 33.637 36.4506 27.9846 36.4974C22.3326 36.5443 16.7875 35.9728 12.1241 34.8674C7.4435 33.7579 3.94958 32.181 2.06104 30.4059C1.1233 29.5245 0.637615 28.6477 0.525673 27.8136C0.415027 26.9892 0.659205 26.1301 1.33366 25.2519C2.68104 23.4974 5.6085 21.8523 9.83301 20.6026L10.5528 21.2255C14.6255 24.7507 19.6543 26.9854 25.0002 27.6458C26.563 27.8388 28.1465 27.7822 29.6916 27.478L30.6626 27.2869C35.0052 26.4319 39.0497 24.4591 42.3968 21.5631L42.0696 21.185L42.3968 21.5631L43.8366 20.3173Z" stroke="black"/>
<path d="M4.86066 3.1897L7.2992 13.1111C8.82167 19.3053 13.2057 24.4028 19.1024 26.8351V26.8351C23.9901 28.8512 29.4771 28.8512 34.3648 26.8351L34.6701 26.7092C40.417 24.3387 44.8034 19.5234 46.6292 13.5809L49.8217 3.1897" stroke="black" stroke-linecap="round"/>
<path d="M47.9989 8.29306L52.8846 6.01319C53.2685 5.83404 53.6877 5.74134 54.1138 5.74134L55.4427 5.74134C57.2754 5.74134 58.7093 7.4034 58.4596 9.23836L57.8504 13.7159C57.7658 14.338 57.4908 14.9134 57.0639 15.3616L54.2635 18.3018C53.4175 19.1901 52.1081 19.4471 50.9685 18.9486L45.5687 16.5863" stroke="black"/>
<path d="M47.1582 7.46844C43.8441 21.783 35.6407 25.5172 26.7685 25.5172C17.8963 25.5172 9.34371 21.1606 7.61464 8.71317C5.01864 -1.86711 18.6117 1.24474 27.8798 0C40.855 1.24474 48.8872 0 47.1582 7.46844Z" fill="#FF902B"/>
</g>
</g>
<defs>
<linearGradient id="paint0_linear_13_448" x1="0" y1="512" x2="1440" y2="512" gradientUnits="userSpaceOnUse">
<stop stop-color="#FFDCAB"/>
<stop offset="1" stop-color="#AB6B2E"/>
</linearGradient>
<clipPath id="clip0_13_448">
<rect width="1440" height="5862" fill="white" transform="translate(-135 -43)"/>
</clipPath>
<clipPath id="clip1_13_448">
<rect width="1440" height="1024" fill="white" transform="translate(-135 -43)"/>
</clipPath>
</defs>
</svg>
